<svg xmlns="http://www.w3.org/2000/svg" viewBox="0 0 56 44" role="img" aria-labelledby="title">
  <title id="title">Oneflow ribbon mark</title>
  <defs>
    <linearGradient id="upper-ribbon" x1="8" y1="35" x2="50" y2="7" gradientUnits="userSpaceOnUse">
      <stop stop-color="#7bb9ef"/>
      <stop offset=".38" stop-color="#4c73ef"/>
      <stop offset=".68" stop-color="#4299ed"/>
      <stop offset="1" stop-color="#4db7e8"/>
    </linearGradient>
    <linearGradient id="fold-ribbon" x1="8" y1="25" x2="48" y2="34" gradientUnits="userSpaceOnUse">
      <stop stop-color="#76b5ef"/>
      <stop offset=".36" stop-color="#665fec"/>
      <stop offset="1" stop-color="#4d49e4"/>
    </linearGradient>
    <clipPath id="ribbon-clip">
      <path d="M4.6 32.8C7.6 23.5 11.6 11.7 17.7 6.7c3.5-2.9 7.1-2 9.5 2.3l4.8 9c1.5 2.8 3.1 2.8 4.8 0l6.7-10.9c2.2-3.6 6.3-4.2 8.6-1.2 1.5 2 1.1 5.3.5 8.4-1.8 9.1-5.3 19.3-10.5 23.5-4.3 3.5-8.9 2.2-12-3.4l-5.8-10.7c-1.5-2.8-3.3-2.8-4.8.1l-5.7 10.9c-1.9 3.7-6.2 4.5-8.5 1.5-.8-1-.9-2.2-.5-3.4Z"/>
    </clipPath>
  </defs>
  <path
    d="M4.6 32.8C7.6 23.5 11.6 11.7 17.7 6.7c3.5-2.9 7.1-2 9.5 2.3l4.8 9c1.5 2.8 3.1 2.8 4.8 0l6.7-10.9c2.2-3.6 6.3-4.2 8.6-1.2 1.5 2 1.1 5.3.5 8.4-1.8 9.1-5.3 19.3-10.5 23.5-4.3 3.5-8.9 2.2-12-3.4l-5.8-10.7c-1.5-2.8-3.3-2.8-4.8.1l-5.7 10.9c-1.9 3.7-6.2 4.5-8.5 1.5-.8-1-.9-2.2-.5-3.4Z"
    fill="url(#upper-ribbon)"
  />
  <path
    d="M2 38C7.8 25.2 14 18.8 19.7 17.2c4-1.1 6.6 1.4 9.8 4.1 5.4 4.6 13.7 3.3 26.5-1.3v28H2Z"
    fill="url(#fold-ribbon)"
    clip-path="url(#ribbon-clip)"
  />
</svg>
