<svg xmlns="http://www.w3.org/2000/svg" viewBox="2 4 58 40" role="img" aria-labelledby="title">
  <title id="title">Oneflow ribbon mark</title>
  <defs>
    <linearGradient id="ribbon-flow" x1="6" y1="38" x2="58" y2="8" gradientUnits="userSpaceOnUse">
      <stop stop-color="#49b9ee"/>
      <stop offset=".31" stop-color="#428eef"/>
      <stop offset=".61" stop-color="#5f6bf4"/>
      <stop offset="1" stop-color="#7454ed"/>
    </linearGradient>
    <linearGradient id="ribbon-depth" x1="9" y1="24" x2="53" y2="34" gradientUnits="userSpaceOnUse">
      <stop stop-color="#67c8ef" stop-opacity=".7"/>
      <stop offset=".48" stop-color="#536cf2" stop-opacity=".82"/>
      <stop offset="1" stop-color="#684de8" stop-opacity=".96"/>
    </linearGradient>
    <clipPath id="ribbon-clip">
      <path d="M5.1 33.8C8.7 24.8 12.5 14 17.4 8.8c3.1-3.3 7.4-2.5 10.1 2.1l5.8 10c1.8 3.1 3.6 3 5.4-.2l6.7-11.5c2.5-4.3 7-4.9 10-1.7 2.5 2.7 2.3 6.2.8 10.8-2.6 7.8-6 17.7-11.2 21.9-4.1 3.3-8.8 2-11.6-2.6l-6.8-11.2c-1.8-3-3.6-2.9-5.2.2L15.7 37c-2.3 4.3-6.7 5.1-9.6 2-1.4-1.5-1.8-3.3-1-5.2Z"/>
    </clipPath>
  </defs>
  <path
    d="M5.1 33.8C8.7 24.8 12.5 14 17.4 8.8c3.1-3.3 7.4-2.5 10.1 2.1l5.8 10c1.8 3.1 3.6 3 5.4-.2l6.7-11.5c2.5-4.3 7-4.9 10-1.7 2.5 2.7 2.3 6.2.8 10.8-2.6 7.8-6 17.7-11.2 21.9-4.1 3.3-8.8 2-11.6-2.6l-6.8-11.2c-1.8-3-3.6-2.9-5.2.2L15.7 37c-2.3 4.3-6.7 5.1-9.6 2-1.4-1.5-1.8-3.3-1-5.2Z"
    fill="url(#ribbon-flow)"
  />
  <path
    d="M2 39.5C9.4 25.7 15.7 18.8 21.4 17.4c4.8-1.2 7.7 2.1 11.1 6.2 4 4.8 8.5 6 13.4 3.5 4.1-2.1 8.2-7 12.1-14.7v35.2H2Z"
    fill="url(#ribbon-depth)"
    clip-path="url(#ribbon-clip)"
  />
  <path d="M10.4 29.2C14.5 19.1 18 11.4 21.2 10.8c2.1-.4 3.8 1.8 5.4 4.5" fill="none" stroke="white" stroke-linecap="round" stroke-width="2" opacity=".2"/>
</svg>
