<svg xmlns="http://www.w3.org/2000/svg" viewBox="0 0 52 42" role="img" aria-labelledby="title">
  <title id="title">Oneflow ribbon mark</title>
  <defs>
    <linearGradient id="left" x1="5" y1="6" x2="28" y2="35" gradientUnits="userSpaceOnUse">
      <stop stop-color="#42C6F4"/>
      <stop offset="0.48" stop-color="#4C79F4"/>
      <stop offset="1" stop-color="#6959F2"/>
    </linearGradient>
    <linearGradient id="right" x1="43" y1="4" x2="25" y2="37" gradientUnits="userSpaceOnUse">
      <stop stop-color="#36B9F1"/>
      <stop offset="0.48" stop-color="#5368F3"/>
      <stop offset="1" stop-color="#7956EE"/>
    </linearGradient>
  </defs>
  <path d="M4.2 31.8a6 6 0 0 1-.5-6.3L13.1 7.9a6.2 6.2 0 0 1 10.7-.4l10 15.8-7.2 12.3L18.4 22l-5.2 9.8a5.2 5.2 0 0 1-9 .1Z" fill="url(#left)"/>
  <path d="M22.7 31.9 37.8 5.8a5.6 5.6 0 0 1 9.7 5.6L34.6 34.6a6.7 6.7 0 0 1-11.9-2.7Z" fill="url(#right)"/>
  <path d="M22.7 31.9 30 19.2l3.8 4.1-7.2 12.3a6.6 6.6 0 0 1-3.9-3.7Z" fill="#665CF1" opacity=".72"/>
</svg>
