<svg xmlns="http://www.w3.org/2000/svg" viewBox="0 0 56 44" role="img" aria-labelledby="title">
  <title id="title">Oneflow ribbon mark</title>
  <defs>
    <linearGradient id="ribbon" x1="7" y1="7" x2="50" y2="37" gradientUnits="userSpaceOnUse">
      <stop stop-color="#38c6d4"/>
      <stop offset="0.28" stop-color="#3d9df2"/>
      <stop offset="0.57" stop-color="#5368f4"/>
      <stop offset="0.82" stop-color="#7458ef"/>
      <stop offset="1" stop-color="#8f5de8"/>
    </linearGradient>
    <linearGradient id="shine" x1="13" y1="8" x2="43" y2="34" gradientUnits="userSpaceOnUse">
      <stop stop-color="#ffffff" stop-opacity=".58"/>
      <stop offset=".46" stop-color="#ffffff" stop-opacity=".08"/>
      <stop offset="1" stop-color="#ffffff" stop-opacity=".24"/>
    </linearGradient>
    <filter id="soft" x="-20%" y="-20%" width="140%" height="140%">
      <feGaussianBlur stdDeviation=".35"/>
    </filter>
  </defs>
  <path
    d="M4.8 31.2C7.9 23.1 11 12.7 15.9 7.3c3.8-4.2 8.3-2.7 11.2 2.3l7.8 13.5c1.7 2.9 3.1 2.8 4.6-.3l7-14.3c1.8-3.7 5.3-4.8 7.5-2.5 1.5 1.6 1.4 3.8.5 6-3.2 8.4-6.5 17.9-11.8 24.1-4 4.7-9.4 4.3-13-1.1L21.5 22c-1.6-2.5-3-2.2-4.2.7l-4.6 11.1c-1.5 3.6-5.2 4.8-7.4 2.3-1.1-1.2-1.2-3-.5-4.9Z"
    fill="url(#ribbon)"
  />
  <path
    d="M8.7 29.8c3.2-8.2 5.6-15.9 9.2-19.1 2-1.8 4.2-.5 6 2.6l7.7 13.2c2.8 4.8 7 5 10.1-.2l8.5-15.4"
    fill="none"
    stroke="url(#shine)"
    stroke-width="2.1"
    stroke-linecap="round"
    filter="url(#soft)"
  />
</svg>
